<?xml version="1.0" standalone="no"?>
 <!DOCTYPE svg PUBLIC "-//W3C//DTD SVG 1.1//EN" 
 "http://www.w3.org/Graphics/SVG/1.1/DTD/svg11.dtd"> 
<svg xmlns="http://www.w3.org/2000/svg" version="1.1" 
    width="29.7002cm" height="21.0007cm" viewBox="0 0 116930 82680 ">
<title>SVG Picture created as lighthouse-B.Cu.svg date 2017/01/13 15:27:23 </title>
  <desc>Picture generated by PCBNEW </desc>
<g style="fill:#000000; fill-opacity:1;stroke:#000000; stroke-opacity:1;
stroke-linecap:round; stroke-linejoin:round; "
 transform="translate(0 0) scale(1 1)">
</g>
<g style="fill:#000000; fill-opacity:0.0; 
stroke:#000000; stroke-width:-0.000393701; stroke-opacity:1; 
stroke-linecap:round; stroke-linejoin:round;">
</g>
<g style="fill:#000000; fill-opacity:0.0; 
stroke:#000000; stroke-width:0; stroke-opacity:1; 
stroke-linecap:round; stroke-linejoin:round;">
</g>
<g style="fill:#000000; fill-opacity:1.0; 
stroke:#000000; stroke-width:0; stroke-opacity:1; 
stroke-linecap:round; stroke-linejoin:round;">
<polyline style="fill-rule:evenodd;"
points="12437,24472
12437,25220
11649,25220
11649,24472
12437,24472
" /> 
<circle cx="12043.3" cy="23846.5" r="374.016" /> 
</g>
<g style="fill:#000000; fill-opacity:1.0; 
stroke:#000000; stroke-width:39.3701; stroke-opacity:1; 
stroke-linecap:round; stroke-linejoin:round;">
</g>
<g style="fill:#000000; fill-opacity:1.0; 
stroke:#000000; stroke-width:0; stroke-opacity:1; 
stroke-linecap:round; stroke-linejoin:round;">
<polyline style="fill-rule:evenodd;"
points="17437,25972
17437,26720
16649,26720
16649,25972
17437,25972
" /> 
<circle cx="17043.3" cy="25346.5" r="374.016" /> 
</g>
<g style="fill:#000000; fill-opacity:1.0; 
stroke:#000000; stroke-width:39.3701; stroke-opacity:1; 
stroke-linecap:round; stroke-linejoin:round;">
</g>
<g style="fill:#000000; fill-opacity:1.0; 
stroke:#000000; stroke-width:0; stroke-opacity:1; 
stroke-linecap:round; stroke-linejoin:round;">
<polyline style="fill-rule:evenodd;"
points="22437,24472
22437,25220
21649,25220
21649,24472
22437,24472
" /> 
<circle cx="22043.3" cy="23846.5" r="374.016" /> 
</g>
<g style="fill:#000000; fill-opacity:1.0; 
stroke:#000000; stroke-width:39.3701; stroke-opacity:1; 
stroke-linecap:round; stroke-linejoin:round;">
</g>
<g style="fill:#000000; fill-opacity:1.0; 
stroke:#000000; stroke-width:0; stroke-opacity:1; 
stroke-linecap:round; stroke-linejoin:round;">
<polyline style="fill-rule:evenodd;"
points="25169,20452
25917,20452
25917,21240
25169,21240
25169,20452
" /> 
<circle cx="24543.3" cy="20846.5" r="374.016" /> 
</g>
<g style="fill:#000000; fill-opacity:1.0; 
stroke:#000000; stroke-width:39.3701; stroke-opacity:1; 
stroke-linecap:round; stroke-linejoin:round;">
</g>
<g style="fill:#000000; fill-opacity:1.0; 
stroke:#000000; stroke-width:0; stroke-opacity:1; 
stroke-linecap:round; stroke-linejoin:round;">
<polyline style="fill-rule:evenodd;"
points="26169,15452
26917,15452
26917,16240
26169,16240
26169,15452
" /> 
<circle cx="25543.3" cy="15846.5" r="374.016" /> 
</g>
<g style="fill:#000000; fill-opacity:1.0; 
stroke:#000000; stroke-width:39.3701; stroke-opacity:1; 
stroke-linecap:round; stroke-linejoin:round;">
</g>
<g style="fill:#000000; fill-opacity:1.0; 
stroke:#000000; stroke-width:0; stroke-opacity:1; 
stroke-linecap:round; stroke-linejoin:round;">
<polyline style="fill-rule:evenodd;"
points="23649,11220
23649,10472
24437,10472
24437,11220
23649,11220
" /> 
<circle cx="24043.3" cy="11846.5" r="374.016" /> 
</g>
<g style="fill:#000000; fill-opacity:1.0; 
stroke:#000000; stroke-width:39.3701; stroke-opacity:1; 
stroke-linecap:round; stroke-linejoin:round;">
</g>
<g style="fill:#000000; fill-opacity:1.0; 
stroke:#000000; stroke-width:0; stroke-opacity:1; 
stroke-linecap:round; stroke-linejoin:round;">
<polyline style="fill-rule:evenodd;"
points="8417,20740
7669,20740
7669,19952
8417,19952
8417,20740
" /> 
<circle cx="9043.31" cy="20346.5" r="374.016" /> 
</g>
<g style="fill:#000000; fill-opacity:1.0; 
stroke:#000000; stroke-width:39.3701; stroke-opacity:1; 
stroke-linecap:round; stroke-linejoin:round;">
</g>
<g style="fill:#000000; fill-opacity:1.0; 
stroke:#000000; stroke-width:0; stroke-opacity:1; 
stroke-linecap:round; stroke-linejoin:round;">
<polyline style="fill-rule:evenodd;"
points="7917,15240
7169,15240
7169,14452
7917,14452
7917,15240
" /> 
<circle cx="8543.31" cy="14846.5" r="374.016" /> 
</g>
<g style="fill:#000000; fill-opacity:1.0; 
stroke:#000000; stroke-width:39.3701; stroke-opacity:1; 
stroke-linecap:round; stroke-linejoin:round;">
</g>
<g style="fill:#000000; fill-opacity:1.0; 
stroke:#000000; stroke-width:0; stroke-opacity:1; 
stroke-linecap:round; stroke-linejoin:round;">
<polyline style="fill-rule:evenodd;"
points="10417,10740
9669,10740
9669,9952
10417,9952
10417,10740
" /> 
<circle cx="11043.3" cy="10346.5" r="374.016" /> 
</g>
<g style="fill:#000000; fill-opacity:1.0; 
stroke:#000000; stroke-width:39.3701; stroke-opacity:1; 
stroke-linecap:round; stroke-linejoin:round;">
</g>
<g style="fill:#000000; fill-opacity:1.0; 
stroke:#000000; stroke-width:0; stroke-opacity:1; 
stroke-linecap:round; stroke-linejoin:round;">
<polyline style="fill-rule:evenodd;"
points="14649,7720
14649,6972
15437,6972
15437,7720
14649,7720
" /> 
<circle cx="15043.3" cy="8346.46" r="374.016" /> 
</g>
<g style="fill:#000000; fill-opacity:1.0; 
stroke:#000000; stroke-width:39.3701; stroke-opacity:1; 
stroke-linecap:round; stroke-linejoin:round;">
</g>
<g style="fill:#000000; fill-opacity:1.0; 
stroke:#000000; stroke-width:0; stroke-opacity:1; 
stroke-linecap:round; stroke-linejoin:round;">
<polyline style="fill-rule:evenodd;"
points="19649,8220
19649,7472
20437,7472
20437,8220
19649,8220
" /> 
<circle cx="20043.3" cy="8846.46" r="374.016" /> 
</g>
<g style="fill:#000000; fill-opacity:1.0; 
stroke:#000000; stroke-width:39.3701; stroke-opacity:1; 
stroke-linecap:round; stroke-linejoin:round;">
</g>
<g style="fill:#000000; fill-opacity:1.0; 
stroke:#000000; stroke-width:0; stroke-opacity:1; 
stroke-linecap:round; stroke-linejoin:round;">
<polyline style="fill-rule:evenodd;"
points="15259,20114
14826,20114
14826,19129
15259,19129
15259,20114
" /> 
</g>
<g style="fill:#000000; fill-opacity:1.0; 
stroke:#000000; stroke-width:433.071; stroke-opacity:1; 
stroke-linecap:round; stroke-linejoin:round;">
</g>
<g style="fill:#000000; fill-opacity:0.0; 
stroke:#000000; stroke-width:433.071; stroke-opacity:1; 
stroke-linecap:round; stroke-linejoin:round;">
<path d="M15830 19897
L15830 19346
" />
<path d="M16618 19897
L16618 19346
" />
<path d="M17405 19897
L17405 19346
" />
<path d="M18192 19897
L18192 19346
" />
<path d="M18980 19897
L18980 19346
" />
<path d="M19767 19897
L19767 19346
" />
<path d="M20555 19897
L20555 19346
" />
<path d="M20555 13834
L20555 13283
" />
<path d="M19767 13874
L19767 13322
" />
<path d="M18980 13834
L18980 13283
" />
<path d="M18192 13834
L18192 13283
" />
<path d="M17405 13834
L17405 13283
" />
<path d="M16618 13834
L16618 13283
" />
<path d="M15830 13834
L15830 13283
" />
<path d="M15043 13834
L15043 13283
" />
</g>
<g style="fill:#000000; fill-opacity:0.0; 
stroke:#000000; stroke-width:0; stroke-opacity:1; 
stroke-linecap:round; stroke-linejoin:round;">
</g>
<g style="fill:#000000; fill-opacity:1.0; 
stroke:#000000; stroke-width:0; stroke-opacity:1; 
stroke-linecap:round; stroke-linejoin:round;">
<polyline style="fill-rule:evenodd;"
points="22643,19446
23443,19446
23443,20246
22643,20246
22643,19446
" /> 
</g>
<g style="fill:#000000; fill-opacity:1.0; 
stroke:#000000; stroke-width:800; stroke-opacity:1; 
stroke-linecap:round; stroke-linejoin:round;">
</g>
<g style="fill:#000000; fill-opacity:0.0; 
stroke:#000000; stroke-width:800; stroke-opacity:1; 
stroke-linecap:round; stroke-linejoin:round;">
<path d="M22043 19846
L22043 19846
" />
</g>
<g style="fill:#000000; fill-opacity:0.0; 
stroke:#000000; stroke-width:0; stroke-opacity:1; 
stroke-linecap:round; stroke-linejoin:round;">
</g>
<g style="fill:#000000; fill-opacity:1.0; 
stroke:#000000; stroke-width:0; stroke-opacity:1; 
stroke-linecap:round; stroke-linejoin:round;">
<polyline style="fill-rule:evenodd;"
points="23643,17946
24443,17946
24443,18746
23643,18746
23643,17946
" /> 
</g>
<g style="fill:#000000; fill-opacity:1.0; 
stroke:#000000; stroke-width:800; stroke-opacity:1; 
stroke-linecap:round; stroke-linejoin:round;">
</g>
<g style="fill:#000000; fill-opacity:0.0; 
stroke:#000000; stroke-width:800; stroke-opacity:1; 
stroke-linecap:round; stroke-linejoin:round;">
<path d="M23043 18346
L23043 18346
" />
</g>
<g style="fill:#000000; fill-opacity:1.0; 
stroke:#000000; stroke-width:0; stroke-opacity:1; 
stroke-linecap:round; stroke-linejoin:round;">
<circle cx="22047.2" cy="16929.1" r="118.11" /> 
</g>
<g style="fill:#000000; fill-opacity:1.0; 
stroke:#000000; stroke-width:39.3701; stroke-opacity:1; 
stroke-linecap:round; stroke-linejoin:round;">
</g>
<g style="fill:#000000; fill-opacity:1.0; 
stroke:#000000; stroke-width:0; stroke-opacity:1; 
stroke-linecap:round; stroke-linejoin:round;">
<circle cx="22047.2" cy="16141.7" r="118.11" /> 
</g>
<g style="fill:#000000; fill-opacity:1.0; 
stroke:#000000; stroke-width:39.3701; stroke-opacity:1; 
stroke-linecap:round; stroke-linejoin:round;">
</g>
<g style="fill:#000000; fill-opacity:1.0; 
stroke:#000000; stroke-width:590.551; stroke-opacity:1; 
stroke-linecap:round; stroke-linejoin:round;">
</g>
<g style="fill:#000000; fill-opacity:0.0; 
stroke:#000000; stroke-width:590.551; stroke-opacity:1; 
stroke-linecap:round; stroke-linejoin:round;">
<path d="M17405 20783
L15748 22440
" />
<path d="M15748 22440
L13448 22440
" />
<path d="M13448 22440
L12661 23228
" />
<path d="M12661 23228
L12598 23228
" />
<path d="M12598 23228
L12598 23291
" />
</g>
<g style="fill:#000000; fill-opacity:0.0; 
stroke:#000000; stroke-width:393.701; stroke-opacity:1; 
stroke-linecap:round; stroke-linejoin:round;">
<path d="M17405 19346
L17405 20783
" />
<path d="M13448 22440
L12598 23291
" />
<path d="M12598 23291
L12043 23846
" />
<path d="M15748 22440
L13448 22440
" />
</g>
<g style="fill:#000000; fill-opacity:0.0; 
stroke:#000000; stroke-width:590.551; stroke-opacity:1; 
stroke-linecap:round; stroke-linejoin:round;">
<path d="M18192 21259
L18192 23696
" />
<path d="M18192 23696
L17480 24409
" />
</g>
<g style="fill:#000000; fill-opacity:0.0; 
stroke:#000000; stroke-width:393.701; stroke-opacity:1; 
stroke-linecap:round; stroke-linejoin:round;">
<path d="M17043 25346
L17043 24846
" />
<path d="M18192 21259
L18192 19346
" />
<path d="M17043 24846
L17480 24409
" />
<path d="M17480 24409
L18192 23696
" />
</g>
<g style="fill:#000000; fill-opacity:0.0; 
stroke:#000000; stroke-width:787.402; stroke-opacity:1; 
stroke-linecap:round; stroke-linejoin:round;">
<path d="M20866 23846
L19543 23846
" />
</g>
<g style="fill:#000000; fill-opacity:0.0; 
stroke:#000000; stroke-width:393.701; stroke-opacity:1; 
stroke-linecap:round; stroke-linejoin:round;">
<path d="M18980 19346
L18980 23283
" />
<path d="M20866 23846
L22043 23846
" />
<path d="M18980 23283
L19543 23846
" />
<path d="M19767 19346
L19767 20570
" />
<path d="M20043 20846
L24543 20846
" />
<path d="M19767 20570
L20043 20846
" />
<path d="M25590 15748
L25543 15846
" />
<path d="M23228 15748
L25590 15748
" />
<path d="M22047 16929
L23228 15748
" />
</g>
<g style="fill:#000000; fill-opacity:0.0; 
stroke:#000000; stroke-width:787.402; stroke-opacity:1; 
stroke-linecap:round; stroke-linejoin:round;">
<path d="M24043 12992
L24043 14145
" />
<path d="M24043 14145
L23228 14960
" />
</g>
<g style="fill:#000000; fill-opacity:0.0; 
stroke:#000000; stroke-width:393.701; stroke-opacity:1; 
stroke-linecap:round; stroke-linejoin:round;">
<path d="M24043 11846
L24043 12992
" />
<path d="M24043 14145
L23228 14960
" />
<path d="M23228 14960
L22047 16141
" />
</g>
<g style="fill:#000000; fill-opacity:0.0; 
stroke:#000000; stroke-width:787.402; stroke-opacity:1; 
stroke-linecap:round; stroke-linejoin:round;">
<path d="M16618 14566
L16618 15771
" />
<path d="M16618 15771
L12043 20346
" />
<path d="M12043 20346
L10362 20346
" />
</g>
<g style="fill:#000000; fill-opacity:0.0; 
stroke:#000000; stroke-width:393.701; stroke-opacity:1; 
stroke-linecap:round; stroke-linejoin:round;">
<path d="M9043 20346
L10362 20346
" />
<path d="M10362 20346
L12043 20346
" />
<path d="M16618 14566
L16618 13834
" />
<path d="M12043 20346
L16618 15771
" />
</g>
<g style="fill:#000000; fill-opacity:0.0; 
stroke:#000000; stroke-width:787.402; stroke-opacity:1; 
stroke-linecap:round; stroke-linejoin:round;">
<path d="M9082 13807
L11043 11846
" />
<path d="M11043 11846
L16106 11846
" />
</g>
<g style="fill:#000000; fill-opacity:0.0; 
stroke:#000000; stroke-width:393.701; stroke-opacity:1; 
stroke-linecap:round; stroke-linejoin:round;">
<path d="M17405 13834
L17405 12708
" />
<path d="M9082 13807
L8543 14346
" />
<path d="M16543 11846
L16106 11846
" />
<path d="M16106 11846
L11043 11846
" />
<path d="M17405 12708
L16543 11846
" />
<path d="M8543 14346
L8543 14846
" />
</g>
<g style="fill:#000000; fill-opacity:0.0; 
stroke:#000000; stroke-width:787.402; stroke-opacity:1; 
stroke-linecap:round; stroke-linejoin:round;">
<path d="M12598 10346
L16543 10346
" />
</g>
<g style="fill:#000000; fill-opacity:0.0; 
stroke:#000000; stroke-width:393.701; stroke-opacity:1; 
stroke-linecap:round; stroke-linejoin:round;">
<path d="M18192 13834
L18192 12496
" />
<path d="M12598 10346
L11043 10346
" />
<path d="M17043 10846
L16543 10346
" />
<path d="M17043 11346
L17043 10846
" />
<path d="M18192 12496
L17043 11346
" />
</g>
<g style="fill:#000000; fill-opacity:0.0; 
stroke:#000000; stroke-width:98.4252; stroke-opacity:1; 
stroke-linecap:round; stroke-linejoin:round;">
<path d="M18043 13846
L18192 13834
" />
</g>
<g style="fill:#000000; fill-opacity:0.0; 
stroke:#000000; stroke-width:393.701; stroke-opacity:1; 
stroke-linecap:round; stroke-linejoin:round;">
<path d="M18980 13834
L18980 12409
" />
<path d="M17543 8346
L15043 8346
" />
<path d="M18043 8846
L17543 8346
" />
<path d="M18043 11472
L18043 8846
" />
<path d="M18980 12409
L18043 11472
" />
<path d="M19767 13834
L19767 10622
" />
<path d="M20043 10346
L20043 8846
" />
<path d="M19767 10622
L20043 10346
" />
<path d="M20555 19346
L21543 19346
" />
<path d="M21543 19346
L22043 19846
" />
</g>
<g style="fill:#000000; fill-opacity:0.0; 
stroke:#000000; stroke-width:787.402; stroke-opacity:1; 
stroke-linecap:round; stroke-linejoin:round;">
<path d="M7543 19291
L7543 16204
" />
</g>
<g style="fill:#000000; fill-opacity:0.0; 
stroke:#000000; stroke-width:393.701; stroke-opacity:1; 
stroke-linecap:round; stroke-linejoin:round;">
<path d="M8043 19846
L7543 19346
" />
<path d="M7543 16204
L7543 14846
" />
<path d="M7543 19346
L7543 19291
" />
<path d="M8043 20346
L8043 19846
" />
</g>
<g style="fill:#000000; fill-opacity:0.0; 
stroke:#000000; stroke-width:787.402; stroke-opacity:1; 
stroke-linecap:round; stroke-linejoin:round;">
<path d="M21259 7846
L21543 7846
" />
<path d="M21543 7846
L22543 8846
" />
<path d="M22543 8846
L22543 9870
" />
<path d="M22543 9870
L20555 11858
" />
<path d="M16141 7346
L19043 7346
" />
<path d="M10535 9354
L11043 8846
" />
<path d="M11043 8846
L12543 8846
" />
<path d="M12543 8846
L14043 7346
" />
<path d="M7543 13846
L9043 12346
" />
<path d="M9043 12346
L9043 11346
" />
<path d="M11064 24368
L8043 21346
" />
<path d="M15748 26346
L14543 26346
" />
<path d="M14543 26346
L13543 25346
" />
<path d="M13543 25346
L13141 25346
" />
<path d="M21279 25610
L21043 25846
" />
<path d="M21043 25846
L19543 25846
" />
<path d="M19543 25846
L19043 26346
" />
<path d="M19043 26346
L18141 26346
" />
<path d="M22907 24482
L25543 21846
" />
<path d="M26543 16929
L26543 18846
" />
<path d="M26543 18846
L25543 19846
" />
<path d="M25543 19846
L25543 19346
" />
<path d="M25155 11458
L25543 11846
" />
<path d="M25543 11846
L25543 13346
" />
<path d="M25543 13346
L26543 14346
" />
</g>
<g style="fill:#000000; fill-opacity:0.0; 
stroke:#000000; stroke-width:393.701; stroke-opacity:1; 
stroke-linecap:round; stroke-linejoin:round;">
<path d="M25543 19346
L25543 20846
" />
<path d="M24543 18346
L25543 19346
" />
<path d="M24043 18346
L24543 18346
" />
<path d="M25543 20846
L25543 19846
" />
<path d="M26543 16929
L26543 15846
" />
<path d="M25543 19846
L26543 18846
" />
<path d="M26543 15846
L26543 14346
" />
<path d="M26543 14346
L25543 13346
" />
<path d="M25543 13346
L25543 11846
" />
<path d="M25155 11458
L24543 10846
" />
<path d="M24543 10846
L24043 10846
" />
<path d="M15043 7346
L16141 7346
" />
<path d="M19543 7846
L20043 7846
" />
<path d="M19043 7346
L19543 7846
" />
<path d="M10043 10346
L10043 9846
" />
<path d="M14043 7346
L15043 7346
" />
<path d="M12543 8846
L14043 7346
" />
<path d="M11043 8846
L12543 8846
" />
<path d="M10043 9846
L10535 9354
" />
<path d="M7543 14846
L7543 13846
" />
<path d="M9043 11346
L10043 10346
" />
<path d="M9043 12346
L9043 11346
" />
<path d="M12043 24846
L11543 24846
" />
<path d="M8043 21346
L8043 20346
" />
<path d="M11543 24846
L11064 24368
" />
<path d="M17043 26346
L15748 26346
" />
<path d="M12543 25346
L12043 24846
" />
<path d="M13543 25346
L13141 25346
" />
<path d="M13141 25346
L12543 25346
" />
<path d="M14543 26346
L13543 25346
" />
<path d="M22043 24846
L21279 25610
" />
<path d="M19043 26346
L18141 26346
" />
<path d="M18141 26346
L17043 26346
" />
<path d="M19543 25846
L19043 26346
" />
<path d="M21043 25846
L19543 25846
" />
<path d="M25543 20846
L25543 21846
" />
<path d="M22543 24846
L22043 24846
" />
<path d="M22907 24482
L22543 24846
" />
<path d="M20555 13834
L20555 11858
" />
<path d="M20555 11858
L22543 9870
" />
<path d="M22543 9870
L22543 8846
" />
<path d="M22543 8846
L21543 7846
" />
<path d="M21259 7846
L20043 7846
" />
<path d="M23043 19846
L23043 18346
" />
</g> 
</svg>
