<?xml version="1.0" standalone="no"?>
 <!DOCTYPE svg PUBLIC "-//W3C//DTD SVG 1.1//EN" 
 "http://www.w3.org/Graphics/SVG/1.1/DTD/svg11.dtd"> 
<svg xmlns="http://www.w3.org/2000/svg" version="1.1" 
    width="29.7002cm" height="21.0007cm" viewBox="0 0 116930 82680 ">
<title>SVG Picture created as lighthouse-F.SilkS.svg date 2017/01/13 15:27:23 </title>
  <desc>Picture generated by PCBNEW </desc>
<g style="fill:#000000; fill-opacity:1;stroke:#000000; stroke-opacity:1;
stroke-linecap:round; stroke-linejoin:round; "
 transform="translate(0 0) scale(1 1)">
</g>
<g style="fill:#000000; fill-opacity:0.0; 
stroke:#000000; stroke-width:-0.000393701; stroke-opacity:1; 
stroke-linecap:round; stroke-linejoin:round;">
</g>
<g style="fill:#000000; fill-opacity:0.0; 
stroke:#000000; stroke-width:78.7402; stroke-opacity:1; 
stroke-linecap:round; stroke-linejoin:round;">
<circle cx="17043.3" cy="16846.5" r="10816.7" /> 
</g>
<g style="fill:#000000; fill-opacity:0.0; 
stroke:#000000; stroke-width:59.0551; stroke-opacity:1; 
stroke-linecap:round; stroke-linejoin:round;">
<path d="M12643.7 25324.8 A1147.83 1147.83 0.0 1 0 11452.8 25330.7 " />
<path d="M12633 25330
L11452 25330
" />
<circle cx="12043.3" cy="24346.5" r="991.313" /> 
<path d="M17643.7 26824.8 A1147.83 1147.83 0.0 1 0 16452.8 26830.7 " />
<path d="M17633 26830
L16452 26830
" />
<circle cx="17043.3" cy="25846.5" r="991.313" /> 
<path d="M22643.7 25324.8 A1147.83 1147.83 0.0 1 0 21452.8 25330.7 " />
<path d="M22633 25330
L21452 25330
" />
<circle cx="22043.3" cy="24346.5" r="991.313" /> 
<path d="M26021.6 20246.1 A1147.83 1147.83 0.0 1 0 26027.6 21437 " />
<path d="M26027 20255
L26027 21437
" />
<circle cx="25043.3" cy="20846.5" r="991.313" /> 
<path d="M27021.6 15246.1 A1147.83 1147.83 0.0 1 0 27027.6 16437 " />
<path d="M27027 15255
L27027 16437
" />
<circle cx="26043.3" cy="15846.5" r="991.313" /> 
<path d="M23443 10368.2 A1147.83 1147.83 0.0 1 0 24633.9 10362.2 " />
<path d="M23452 10362
L24633 10362
" />
<circle cx="24043.3" cy="11346.5" r="991.313" /> 
<path d="M7565 20946.8 A1147.83 1147.83 0.0 1 0 7559.06 19755.9 " />
<path d="M7559 20937
L7559 19755
" />
<circle cx="8543.31" cy="20346.5" r="991.313" /> 
<path d="M7065 15446.8 A1147.83 1147.83 0.0 1 0 7059.06 14255.9 " />
<path d="M7059 15437
L7059 14255
" />
<circle cx="8043.31" cy="14846.5" r="991.313" /> 
<path d="M9565 10946.8 A1147.83 1147.83 0.0 1 0 9559.06 9755.91 " />
<path d="M9559 10937
L9559 9755
" />
<circle cx="10543.3" cy="10346.5" r="991.313" /> 
<path d="M14443 6868.15 A1147.83 1147.83 0.0 1 0 15633.9 6862.2 " />
<path d="M14452 6862
L15633 6862
" />
<circle cx="15043.3" cy="7846.46" r="991.313" /> 
<path d="M19443 7368.15 A1147.83 1147.83 0.0 1 0 20633.9 7362.2 " />
<path d="M19452 7362
L20633 7362
" />
<circle cx="20043.3" cy="8346.46" r="991.313" /> 
</g>
<g style="fill:#000000; fill-opacity:0.0; 
stroke:#000000; stroke-width:60; stroke-opacity:1; 
stroke-linecap:round; stroke-linejoin:round;">
<path d="M20893 19746
L21193 19746
" />
<path d="M21193 19746
L21193 13446
" />
<path d="M21193 13446
L20893 13446
" />
</g>
<g style="fill:#000000; fill-opacity:0.0; 
stroke:#000000; stroke-width:59.0551; stroke-opacity:1; 
stroke-linecap:round; stroke-linejoin:round;">
<path d="M22543 20346
L21543 20346
" />
<path d="M23653 20456
L23043 20456
" />
<path d="M22543 20346
L22543 19346
" />
<path d="M23043 19236
L23653 19236
" />
<path d="M23653 19236
L23653 20456
" />
<path d="M22543 19346
L21543 19346
" />
<path d="M21543 19346
L21543 20346
" />
<path d="M23543 18846
L22543 18846
" />
<path d="M24653 18956
L24043 18956
" />
<path d="M23543 18846
L23543 17846
" />
<path d="M24043 17736
L24653 17736
" />
<path d="M24653 17736
L24653 18956
" />
<path d="M23543 17846
L22543 17846
" />
<path d="M22543 17846
L22543 18846
" />
<path d="M13821 24537
L13427 24537
L13427 24443
L13446 24387
L13483 24349
L13521 24330
L13596 24312
L13652 24312
L13727 24330
L13765 24349
L13802 24387
L13821 24443
L13821 24537
" />
<path d="M13821 23937
L13821 24162
" />
<path d="M13821 24049
L13427 24049
L13483 24087
L13521 24124
L13540 24162
" />
<path d="M12971 25699
L12577 25699
" />
<path d="M12971 25474
L12746 25643
" />
<path d="M12577 25474
L12802 25699
" />
<path d="M18821 26037
L18427 26037
L18427 25943
L18446 25887
L18483 25849
L18521 25830
L18596 25812
L18652 25812
L18727 25830
L18765 25849
L18802 25887
L18821 25943
L18821 26037
" />
<path d="M18465 25662
L18446 25643
L18427 25605
L18427 25512
L18446 25474
L18465 25455
L18502 25437
L18540 25437
L18596 25455
L18821 25680
L18821 25437
" />
<path d="M17971 27199
L17577 27199
" />
<path d="M17971 26974
L17746 27143
" />
<path d="M17577 26974
L17802 27199
" />
<path d="M23821 24537
L23427 24537
L23427 24443
L23446 24387
L23483 24349
L23521 24330
L23596 24312
L23652 24312
L23727 24330
L23765 24349
L23802 24387
L23821 24443
L23821 24537
" />
<path d="M23427 24180
L23427 23937
L23577 24068
L23577 24012
L23596 23974
L23615 23955
L23652 23937
L23746 23937
L23783 23955
L23802 23974
L23821 24012
L23821 24124
L23802 24162
L23783 24180
" />
<path d="M22971 25699
L22577 25699
" />
<path d="M22971 25474
L22746 25643
" />
<path d="M22577 25474
L22802 25699
" />
<path d="M24652 19424
L24652 19030
L24746 19030
L24802 19049
L24840 19087
L24858 19124
L24877 19199
L24877 19255
L24858 19330
L24840 19368
L24802 19405
L24746 19424
L24652 19424
" />
<path d="M25215 19162
L25215 19424
" />
<path d="M25121 19012
L25027 19293
L25271 19293
" />
<path d="M26190 20274
L26190 19880
" />
<path d="M26415 20274
L26246 20049
" />
<path d="M26415 19880
L26190 20105
" />
<path d="M25652 14424
L25652 14030
L25746 14030
L25802 14049
L25840 14087
L25858 14124
L25877 14199
L25877 14255
L25858 14330
L25840 14368
L25802 14405
L25746 14424
L25652 14424
" />
<path d="M26233 14030
L26046 14030
L26027 14218
L26046 14199
L26083 14180
L26177 14180
L26215 14199
L26233 14218
L26252 14255
L26252 14349
L26233 14387
L26215 14405
L26177 14424
L26083 14424
L26046 14405
L26027 14387
" />
<path d="M27190 15274
L27190 14880
" />
<path d="M27415 15274
L27246 15049
" />
<path d="M27415 14880
L27190 15105
" />
<path d="M22621 11737
L22227 11737
L22227 11643
L22246 11587
L22283 11549
L22321 11530
L22396 11512
L22452 11512
L22527 11530
L22565 11549
L22602 11587
L22621 11643
L22621 11737
" />
<path d="M22227 11174
L22227 11249
L22246 11287
L22265 11305
L22321 11343
L22396 11362
L22546 11362
L22583 11343
L22602 11324
L22621 11287
L22621 11212
L22602 11174
L22583 11155
L22546 11137
L22452 11137
L22415 11155
L22396 11174
L22377 11212
L22377 11287
L22396 11324
L22415 11343
L22452 11362
" />
<path d="M23190 10274
L23190 9880
" />
<path d="M23415 10274
L23246 10049
" />
<path d="M23415 9880
L23190 10105
" />
<path d="M8352 22124
L8352 21730
L8446 21730
L8502 21749
L8540 21787
L8558 21824
L8577 21899
L8577 21955
L8558 22030
L8540 22068
L8502 22105
L8446 22124
L8352 22124
" />
<path d="M8708 21730
L8971 21730
L8802 22124
" />
<path d="M7190 21274
L7190 20880
" />
<path d="M7415 21274
L7246 21049
" />
<path d="M7415 20880
L7190 21105
" />
<path d="M7852 16624
L7852 16230
L7946 16230
L8002 16249
L8040 16287
L8058 16324
L8077 16399
L8077 16455
L8058 16530
L8040 16568
L8002 16605
L7946 16624
L7852 16624
" />
<path d="M8302 16399
L8265 16380
L8246 16362
L8227 16324
L8227 16305
L8246 16268
L8265 16249
L8302 16230
L8377 16230
L8415 16249
L8433 16268
L8452 16305
L8452 16324
L8433 16362
L8415 16380
L8377 16399
L8302 16399
L8265 16418
L8246 16437
L8227 16474
L8227 16549
L8246 16587
L8265 16605
L8302 16624
L8377 16624
L8415 16605
L8433 16587
L8452 16549
L8452 16474
L8433 16437
L8415 16418
L8377 16399
" />
<path d="M6690 15774
L6690 15380
" />
<path d="M6915 15774
L6746 15549
" />
<path d="M6915 15380
L6690 15605
" />
<path d="M10352 12124
L10352 11730
L10446 11730
L10502 11749
L10540 11787
L10558 11824
L10577 11899
L10577 11955
L10558 12030
L10540 12068
L10502 12105
L10446 12124
L10352 12124
" />
<path d="M10765 12124
L10840 12124
L10877 12105
L10896 12087
L10933 12030
L10952 11955
L10952 11805
L10933 11768
L10915 11749
L10877 11730
L10802 11730
L10765 11749
L10746 11768
L10727 11805
L10727 11899
L10746 11937
L10765 11955
L10802 11974
L10877 11974
L10915 11955
L10933 11937
L10952 11899
" />
<path d="M9190 11274
L9190 10880
" />
<path d="M9415 11274
L9246 11049
" />
<path d="M9415 10880
L9190 11105
" />
<path d="M13621 8424
L13227 8424
L13227 8330
L13246 8274
L13283 8237
L13321 8218
L13396 8199
L13452 8199
L13527 8218
L13565 8237
L13602 8274
L13621 8330
L13621 8424
" />
<path d="M13621 7824
L13621 8049
" />
<path d="M13621 7937
L13227 7937
L13283 7974
L13321 8012
L13340 8049
" />
<path d="M13227 7580
L13227 7543
L13246 7505
L13265 7487
L13302 7468
L13377 7449
L13471 7449
L13546 7468
L13583 7487
L13602 7505
L13621 7543
L13621 7580
L13602 7618
L13583 7637
L13546 7655
L13471 7674
L13377 7674
L13302 7655
L13265 7637
L13246 7618
L13227 7580
" />
<path d="M14471 6699
L14077 6699
" />
<path d="M14471 6474
L14246 6643
" />
<path d="M14077 6474
L14302 6699
" />
<path d="M18621 8924
L18227 8924
L18227 8830
L18246 8774
L18283 8737
L18321 8718
L18396 8699
L18452 8699
L18527 8718
L18565 8737
L18602 8774
L18621 8830
L18621 8924
" />
<path d="M18621 8324
L18621 8549
" />
<path d="M18621 8437
L18227 8437
L18283 8474
L18321 8512
L18340 8549
" />
<path d="M18621 7949
L18621 8174
" />
<path d="M18621 8062
L18227 8062
L18283 8099
L18321 8137
L18340 8174
" />
<path d="M19471 7199
L19077 7199
" />
<path d="M19471 6974
L19246 7143
" />
<path d="M19077 6974
L19302 7199
" />
<path d="M14040 20433
L14359 20433
L14396 20415
L14415 20396
L14434 20358
L14434 20283
L14415 20246
L14396 20227
L14359 20208
L14040 20208
" />
<path d="M14434 19815
L14434 20040
" />
<path d="M14434 19927
L14040 19927
L14096 19965
L14134 20002
L14152 20040
" />
<path d="M25229 20137
L24835 20137
L24835 19987
L24854 19949
L24873 19930
L24910 19912
L24966 19912
L25004 19930
L25023 19949
L25041 19987
L25041 20137
" />
<path d="M25229 19537
L25229 19762
" />
<path d="M25229 19649
L24835 19649
L24891 19687
L24929 19724
L24948 19762
" />
<path d="M26229 18637
L25835 18637
L25835 18487
L25854 18449
L25873 18430
L25910 18412
L25966 18412
L26004 18430
L26023 18449
L26041 18487
L26041 18637
" />
<path d="M25873 18262
L25854 18243
L25835 18205
L25835 18112
L25854 18074
L25873 18055
L25910 18037
L25948 18037
L26004 18055
L26229 18280
L26229 18037
" />
</g> 
</svg>
