M48
;DRILL file {KiCad 4.0.2+dfsg1-stable} date Fri 13 Jan 2017 02:32:55 PM EST
;FORMAT={-:-/ absolute / inch / decimal}
FMAT,2
INCH,TZ
T1C0.016
T2C0.026
T3C0.039
T4C0.040
%
G90
G05
M72
T1
X6.8504Y-3.7795
X6.8504Y-3.8583
T2
X6.15Y-3.5488
X6.15Y-4.1
X6.2287Y-3.5488
X6.2287Y-4.1
X6.3075Y-3.5488
X6.3075Y-4.1
X6.3862Y-3.5488
X6.3862Y-4.1
X6.465Y-3.5488
X6.465Y-4.1
X6.5437Y-3.5488
X6.5437Y-4.1
X6.6224Y-3.5488
X6.6224Y-4.1
X6.7012Y-3.5488
X6.7012Y-4.1
T3
X5.4Y-3.65
X5.45Y-4.2
X5.5Y-3.65
X5.55Y-4.2
X5.65Y-3.2
X5.75Y-3.2
X5.85Y-4.55
X5.85Y-4.65
X6.15Y-2.9
X6.15Y-3.
X6.35Y-4.7
X6.35Y-4.8
X6.65Y-2.95
X6.65Y-3.05
X6.85Y-4.55
X6.85Y-4.65
X7.05Y-3.25
X7.05Y-3.35
X7.1Y-4.25
X7.2Y-3.75
X7.2Y-4.25
X7.3Y-3.75
T4
X6.85Y-4.15
X6.95Y-4.
X6.95Y-4.15
X7.05Y-4.
T0
M30
